<?xml version="1.0" encoding="UTF-8"?>
<!-- Generator: Adobe Illustrator 27.8.1, SVG Export Plug-In . SVG Version: 6.00 Build 0)  -->
<svg version="1.1" id="Layer_1" xmlns="http://www.w3.org/2000/svg" xmlns:xlink="http://www.w3.org/1999/xlink" x="0px" y="0px" viewBox="0 0 222.1 54.5" style="enable-background:new 0 0 222.1 54.5;" xml:space="preserve">
<style type="text/css">
	.st0{fill:#FFFFFF;}
	.st1{fill:#EF3F73;}
</style>
<g>
	<path class="st0" d="M38.6,24.3c0,14.1-8.4,23.1-22.5,23.1H0V1.3h16.1C30.3,1.3,38.6,10,38.6,24.3z M29.7,24.1   c0-8.9-4.2-15-13.9-15H8.7v30.6h7.1C25.5,39.6,29.7,33,29.7,24.1z"/>
	<path class="st0" d="M74.4,37c-1.3,6.8-7,11.1-15.4,11.1c-9.8,0-16.9-6.7-16.9-16.8c0-10.9,7.5-17.5,16.6-17.5   c8.1,0,15.6,5.1,15.6,16.9c0,0.8-0.1,1.5-0.1,2.4H50.5c0.3,4.7,3.4,8.2,8.6,8.2c3.7,0,6.3-1.5,7.3-4.4H74.4z M50.6,27.5h15.8   c-0.2-4.1-3.2-7-7.6-7C54.2,20.5,51.2,23.5,50.6,27.5z"/>
	<path class="st0" d="M79.3,0.6h8.4v46.8h-8.4V0.6z"/>
	<path class="st0" d="M94.8,5.1c0-2.9,2.4-5.1,5.2-5.1c2.8,0,5.1,2.2,5.1,5.1c0,2.7-2.3,5.1-5.1,5.1C97.2,10.2,94.8,7.8,94.8,5.1z    M95.7,14.4h8.4v33h-8.4V14.4z"/>
	<path class="st0" d="M112.1,14.4h7.6l0.8,4.7h0.5c2-3.3,4.3-5.3,9.8-5.3h2.4v8.4c-1.2-0.2-2.4-0.3-3.6-0.3c-7.3,0-9.2,5.3-9.2,10.1   v15.4h-8.4V14.4z"/>
	<path class="st0" d="M137.4,5.1c0-2.9,2.4-5.1,5.2-5.1c2.8,0,5.1,2.2,5.1,5.1c0,2.7-2.3,5.1-5.1,5.1   C139.8,10.2,137.4,7.8,137.4,5.1z M138.4,14.4h8.4v33h-8.4V14.4z"/>
	<path class="st0" d="M153.5,30.8c0-10.1,7.5-17.1,17.4-17.1c9.9,0,17.4,7,17.4,17.1c0,10.2-7.4,17.2-17.4,17.2   C161.1,48,153.5,41,153.5,30.8z M179.9,30.8c0-5.5-3.6-9.8-9-9.8c-5.4,0-9,4.3-9,9.8c0,5.5,3.6,9.9,9,9.9   C176.3,40.7,179.9,36.4,179.9,30.8z"/>
	<path class="st1" d="M222.1,47.4v7.1H193v-7.1H222.1z"/>
</g>
</svg>